<?xml version="1.0" encoding="UTF-8" standalone="no"?>
<!DOCTYPE svg PUBLIC "-//W3C//DTD SVG 1.1//EN" "http://www.w3.org/Graphics/SVG/1.1/DTD/svg11.dtd">
<svg width="100%" height="100%" viewBox="0 0 2000 1000" version="1.1" xmlns="http://www.w3.org/2000/svg" xmlns:xlink="http://www.w3.org/1999/xlink" xml:space="preserve" xmlns:serif="http://www.serif.com/" style="fill-rule:evenodd;clip-rule:evenodd;stroke-linejoin:round;stroke-miterlimit:2;">
    <path d="M258,872L393,872C393,872 318.166,720.039 341,527C363.834,333.961 503.299,282.661 551,283C551,283 599.441,279.268 623,320C623,320 675.308,400.884 568,445C460.692,489.116 352.533,562.028 362,701C371.467,839.972 504.918,867 530,867C555.082,867 682.388,884.645 772,698L886,466L886,872L1015,872L1015,220C1015,220 1018.374,169.988 971,156C923.626,142.012 902.01,172.624 890,191C877.99,209.376 750,440 750,440L619,705C619,705 561.702,782.702 502,723C502,723 454.45,670.082 509,614C509,614 551.022,583.632 596,568C640.978,552.368 684.968,513.363 711,485C737.032,456.637 781.068,392.412 746,279C710.932,165.588 571.377,147.244 512,160C452.623,172.756 320.298,223.874 258,381C195.702,538.126 221.065,714.488 232,760L258,872Z" style="fill:rgb(20,0,237);"/>
    <g transform="matrix(1.919137,0,0,1.919137,-1628.954178,-794.973046)">
        <path d="M1583.5,495C1685.88,495 1769,578.12 1769,680.5C1769,782.88 1685.88,866 1583.5,866C1481.12,866 1398,782.88 1398,680.5C1398,578.12 1481.12,495 1583.5,495ZM1583.5,572.118C1523.682,572.118 1475.118,620.682 1475.118,680.5C1475.118,740.318 1523.682,788.882 1583.5,788.882C1643.318,788.882 1691.882,740.318 1691.882,680.5C1691.882,620.682 1643.318,572.118 1583.5,572.118Z" style="fill:rgb(20,0,237);"/>
    </g>
</svg>
